<?xml version="1.0" encoding="UTF-8" standalone="no"?>

<svg
   version="1.1"
   id="svg1854"
   xml:space="preserve"
   width="2368.5071"
   height="154.33144"
   viewBox="0 0 2368.5071 154.33144"
   xmlns="http://www.w3.org/2000/svg"><defs
     id="defs1858" /><g
     id="layer1"
     transform="translate(-338.63697,-23.740566)">
    <path
       d="m 1722.0021,23.740566 c -14.3259,0 -28.7799,3.570103 -41.3153,10.73318 -10.7446,7.275004 -21.4734,16.230644 -28.6365,26.975262 -5.4843,12.535386 -9.0719,25.062828 -9.0719,39.500922 0,14.32615 3.5876,28.669 9.0719,39.41361 7.1631,12.64729 17.8919,21.58279 28.6365,28.74585 12.5354,5.37233 26.9894,8.96261 41.3153,8.96261 16.1171,0 28.6462,-3.59028 41.2936,-8.96261 12.5353,-7.16306 21.4954,-16.09856 28.6585,-28.74585 7.163,-10.74461 10.7332,-25.08746 10.7332,-39.41361 0,-14.438094 -3.5702,-26.965536 -10.7332,-39.500922 -7.1631,-10.744618 -16.1232,-21.491032 -28.6585,-26.975262 -12.6474,-7.163077 -25.1765,-10.73318 -41.2936,-10.73318 z m 479.1271,0 c -16.2288,0 -30.5489,3.570103 -41.2934,10.73318 -12.5355,5.48423 -21.493,16.230644 -28.7679,26.975262 -7.163,12.535386 -10.7332,25.062828 -10.7332,39.500922 0,14.32615 3.5702,28.669 10.7332,39.41361 7.2749,12.64729 16.2324,21.58279 28.7679,28.74585 10.7445,7.16311 25.0646,8.96261 41.2934,8.96261 10.7446,0 19.7064,-1.79424 30.4509,-3.585 8.9537,-3.58156 18.0197,-8.94605 25.1828,-14.31833 v -59.21874 h -16.2202 v 52.04862 c -10.7443,7.16305 -23.2965,10.75511 -39.4135,10.75511 -12.6473,0 -23.3788,-1.7977 -34.1234,-7.17003 -8.9538,-5.3723 -16.1178,-14.43636 -23.2809,-23.3902 -5.3724,-8.95389 -7.17,-19.70812 -7.17,-32.2435 0,-10.856553 1.7976,-21.586285 7.17,-32.330904 7.1631,-8.95385 14.3271,-16.116033 23.2809,-21.488342 10.7446,-5.37231 21.4761,-9.071928 34.1234,-9.071928 17.9077,0 34.0236,5.477293 46.6711,18.012679 l 8.9626,-10.733316 c -7.1631,-7.274999 -14.4381,-12.660405 -25.1828,-16.241943 -8.9539,-3.581538 -19.7063,-5.35561 -30.4509,-5.35561 z M 338.63697,25.292583 V 177.50365 h 16.11077 V 25.292583 Z m 361.71714,0 V 177.50365 h 16.13261 V 25.292583 Z m -225.50764,0.21826 V 178.07164 h 16.11081 v -48.46325 h 39.501 c 5.37231,0 8.96604,-0.001 12.5476,-1.79257 L 578.9219,178.072 h 16.11075 l -35.91586,-52.04861 c 10.74461,-3.58156 19.81034,-10.74024 25.18267,-17.90333 5.37229,-8.953858 8.96257,-18.024885 8.96257,-30.560274 0,-16.116927 -5.38808,-28.645376 -16.13269,-37.599224 C 566.27278,29.104021 550.15676,25.511178 530.45828,25.511178 Z m 360.60227,0 V 178.07164 h 16.24197 V 54.278541 l 96.79604,123.793099 h 14.44938 V 25.510833 H 946.69418 V 149.4132 L 848.10572,25.510833 Z m 290.78146,0 -70.0612,152.560797 h 18.0126 l 17.9034,-41.29357 h 84.4013 l 17.9034,41.29357 h 17.9033 L 1142.3411,25.510833 Z m 306.783,0 V 178.07164 h 16.2201 v -41.29357 l 30.4511,-30.45091 60.9893,71.74448 h 19.8269 l -69.9518,-84.270253 66.3669,-68.290554 h -19.8272 l -87.8552,91.571457 V 25.510833 Z m 473.7714,0 V 178.07164 h 16.22 v -48.46325 h 41.1842 c 3.5816,0 9.0754,-0.001 12.6571,-1.79257 L 2010.86,178.072 h 18.0342 l -37.73,-52.04861 c 12.5354,-3.58156 19.7028,-10.74024 26.866,-17.90333 5.3721,-8.953858 9.0715,-18.024885 9.0715,-30.560274 0,-16.116927 -5.477,-28.645376 -18.0124,-37.599224 -10.7445,-10.856541 -25.0899,-14.449384 -44.9005,-14.449384 z m 464.8088,0 V 178.07164 h 105.8897 v -14.31833 h -89.779 v -57.42615 h 77.2312 V 93.801387 h -77.2312 v -53.84117 h 87.9865 V 25.510833 Z m 213.5501,0 V 178.07164 h 16.1108 v -48.46325 h 41.3155 c 3.5815,0 7.1534,-0.001 12.5256,-1.79257 l 34.1454,50.25618 h 17.9033 l -37.7083,-52.04861 c 10.8564,-3.58156 19.8104,-10.74024 25.1826,-17.90333 7.1631,-8.953858 8.9408,-18.024885 8.9408,-30.560274 0,-16.116927 -5.3663,-28.645376 -16.111,-37.599224 -10.7446,-10.856541 -25.1799,-14.449384 -44.8784,-14.449384 z m -863.1414,12.547578 c 12.5356,0 23.2679,3.699618 32.2216,9.071926 10.8565,5.372311 18.0179,12.534494 23.3903,21.488343 5.3723,10.744618 8.9627,21.474351 8.9627,32.33089 0,12.53539 -3.5904,23.28964 -8.9627,32.24349 -5.3724,10.74461 -12.5338,18.01793 -23.3903,23.39025 -8.9537,5.37229 -19.686,7.16999 -32.2216,7.16999 -10.7444,0 -23.3988,-1.7977 -32.3527,-7.16999 -8.9539,-5.37232 -17.9086,-12.64564 -23.2809,-23.39025 -5.3724,-8.95385 -7.17,-19.7081 -7.17,-32.24349 0,-10.856539 1.7976,-21.586272 7.17,-32.33089 5.3723,-8.953849 14.327,-16.116032 23.2809,-21.488343 8.9539,-5.372308 21.6083,-9.071926 32.3527,-9.071926 z M 490.95728,39.960217 h 39.501 c 16.11691,0 26.87296,1.799612 34.03592,8.962692 9.06592,7.163079 12.63514,16.101146 12.63514,28.636534 0,12.535389 -3.56922,21.604631 -12.63514,28.767717 -7.16296,5.37229 -17.91901,8.96258 -34.03592,8.96258 h -39.501 z m 1432.04732,0 h 41.1842 c 14.4382,0 26.9825,1.799612 34.1454,8.962692 7.1631,7.163079 12.5258,16.101146 12.5258,28.636534 0,12.535389 -5.3627,21.604631 -12.5258,28.767717 -7.1629,5.37229 -19.7072,8.96258 -34.1454,8.96258 h -41.1842 z m 678.2497,0 h 41.3155 c 14.3261,0 25.0575,1.799612 34.1234,8.962692 7.163,7.163079 10.755,16.101146 10.755,28.636534 0,12.535389 -3.592,21.604631 -10.755,28.767717 -9.0659,5.37229 -19.7973,8.96258 -34.1234,8.96258 h -41.3155 z m -1467.854,1.792558 37.7084,82.477695 h -73.6461 z"
       style="color:#000000;fill:#876c5b;stroke-width:11.1923;-inkscape-stroke:none"
       id="path864" />
</g>
</svg>
