<svg width="211.61914" height="227.35934" viewBox="0 0 211.61914 227.35935"
     xmlns="http://www.w3.org/2000/svg">
    <defs id="defs1858">
        <clipPath clipPathUnits="userSpaceOnUse" id="clipPath1872">
            <path d="M 0.16,0 V 1122.5601 H 793.76001 V 0 Z"
                  clip-rule="evenodd" id="path1870" /></clipPath><clipPath
        clipPathUnits="userSpaceOnUse"
        id="clipPath1900"><path
         d="M -166.27,-253.33 V 869.22998 H 627.33002 V -253.33 Z"
         clip-rule="evenodd"
         id="path1898" /></clipPath><clipPath
        clipPathUnits="userSpaceOnUse"
        id="clipPath1914"><path
         d="M 0.16,0 V 1122.5601 H 793.76001 V 0 Z"
         clip-rule="evenodd"
         id="path1912" /></clipPath></defs><g
        id="g1860"
        transform="translate(-144.96094,-143.82024)"><path
       id="path3558"
       style="color:#000000;fill:#ffffff;-inkscape-stroke:none"
       d="m 228.71875,143.82031 v 86.09961 h 1.12305 v -86.09961 z m -65.17969,38.48047 v 1.2793 c 3.53,0 6.09117,1.13094 7.70117,3.21094 1.6,2.25 2.55907,5.60992 3.03907,10.41992 0.32,4.81 0.64062,11.22844 0.64062,19.39844 v 13.31054 h 10.58985 v -13.31054 c 0,-8.17001 0.16046,-14.58844 0.48046,-19.39844 0.48,-4.81 1.43907,-8.32992 3.03907,-10.41992 1.61,-2.08 4.17117,-3.21094 7.70117,-3.21094 v -1.2793 z m 76.64063,0 v 1.2793 c 3.53,0 6.09117,1.13094 7.70117,3.21094 1.6,2.25 2.55906,5.60992 3.03906,10.41992 0.32,4.81 0.64063,11.22844 0.64063,19.39844 v 13.31054 h 10.41992 v -13.31054 c 0,-8.17001 0.17039,-14.58844 0.65039,-19.39844 0.32,-4.81 1.43906,-8.32992 3.03906,-10.41992 1.61,-2.08 4.16922,-3.21094 7.69922,-3.21094 v -1.2793 z m 71.66992,0 c 1.28,1.12 2.40117,2.72875 3.20117,4.96875 0.65,2.25 1.12891,4.49024 1.12891,6.74024 0,4.97 -0.96047,9.30062 -2.73047,13.14062 -1.76,3.69 -4.16883,7.05922 -7.04883,9.94922 -2.89,2.88 -6.10109,5.45125 -9.62109,7.53125 -3.12343,1.99085 -6.22873,3.69722 -9.23438,5.28906 h 10.8711 c 1.94232,-0.89781 3.89758,-1.84584 5.89453,-2.8789 4.17,-2.25 8.01898,-4.97149 11.70898,-8.02149 3.52,-3.05 6.41024,-6.74039 8.49024,-10.90039 2.09,-4.17 3.21093,-8.81953 3.21093,-14.26953 0,-2.41 -0.32093,-4.49025 -0.96093,-6.74023 -0.64,-2.08001 -1.60047,-3.6886 -2.73047,-4.8086 z m -43.28906,57.24024 c -1.28,0 -2.57141,0.31898 -3.69141,0.95898 -0.96,0.65 -1.91859,1.45016 -2.55859,2.41016 -0.49,1.12 -0.81055,2.23929 -0.81055,3.52929 0,1.28 0.32055,2.56149 0.81055,3.52149 0.64,1.13 1.59859,1.92836 2.55859,2.56836 1.12,0.48 2.41141,0.80078 3.69141,0.80078 1.44,0 2.55945,-0.32078 3.68945,-0.80078 1.12,-0.64 1.92055,-1.43836 2.56055,-2.56836 0.64,-0.96 0.95898,-2.24149 0.95898,-3.52149 0,-1.29 -0.31898,-2.40929 -0.95898,-3.52929 -0.64,-0.96 -1.44055,-1.92016 -2.56055,-2.41016 -1.13,-0.64 -2.24945,-0.95898 -3.68945,-0.95898 z m 42.80859,0 c -1.45,0 -2.72945,0.31898 -3.68945,0.95898 -1.12,0.49 -1.92032,1.45016 -2.57031,2.41016 -0.64001,1.12 -0.95899,2.23929 -0.95899,3.52929 0,1.28 0.31899,2.56149 0.95899,3.52149 0.64999,1.13 1.45031,1.92836 2.57031,2.56836 0.96,0.64 2.23945,0.80078 3.68945,0.80078 0.96,0 1.7607,-0.16031 2.7207,-0.32031 0.8,-0.32 1.61,-0.7993 2.25,-1.2793 v -5.29102 h -1.44922 v 4.65039 c -0.95999,0.64 -2.08148,0.96094 -3.52148,0.96094 -1.13,0 -2.08883,-0.16062 -3.04883,-0.64062 -0.8,-0.48 -1.44008,-1.28985 -2.08008,-2.08985 -0.48,-0.8 -0.64062,-1.76086 -0.64062,-2.88086 0,-0.97 0.16062,-1.92867 0.64062,-2.88867 0.64,-0.8 1.28008,-1.43992 2.08008,-1.91992 0.96,-0.48 1.91883,-0.81055 3.04883,-0.81055 1.6,0 3.03992,0.48938 4.16992,1.60938 l 0.80078,-0.95899 c -0.64,-0.65 -1.29,-1.13117 -2.25,-1.45117 -0.8,-0.32 -1.7607,-0.47851 -2.7207,-0.47851 z m -166.4082,0.13867 v 13.59961 h 1.43945 v -13.59961 z m 32.31836,0 v 13.59961 h 1.4414 v -13.59961 z m -20.14844,0.0195 v 13.63086 h 1.43945 V 249 h 3.5293 c 0.48,0 0.80109,-1.6e-4 1.12109,-0.16016 l 3.20899,4.49024 h 1.43945 l -3.20898,-4.65039 c 0.96,-0.32 1.77,-0.95961 2.25,-1.59961 0.48,-0.8 0.80078,-1.61047 0.80078,-2.73047 0,-1.44 -0.48141,-2.55938 -1.44141,-3.35938 -0.97,-0.97 -2.40992,-1.29101 -4.16992,-1.29101 z m 32.21875,0 v 13.63086 h 1.45117 V 242.2695 l 8.64844,11.06055 h 1.29101 v -13.63086 h -1.45117 v 11.07031 l -8.80859,-11.07031 z m 25.98047,0 -6.25977,13.63086 h 1.60938 l 1.59961,-3.68946 h 7.54101 l 1.59961,3.68946 h 1.59961 l -6.25,-13.63086 z m 27.41015,0 v 13.63086 h 1.44922 v -3.68946 l 2.72071,-2.7207 5.44922,6.41016 h 1.77148 l -6.25,-7.5293 5.92969,-6.10156 h -1.77149 l -7.84961,8.18164 v -8.18164 z m 42.33008,0 v 13.63086 h 1.44922 V 249 h 3.67969 c 0.32,0 0.81086,-1.6e-4 1.13086,-0.16016 l 3.03906,4.49024 h 1.61133 l -3.37109,-4.65039 c 1.12,-0.32 1.76039,-0.95961 2.40039,-1.59961 0.48,-0.8 0.81054,-1.61047 0.81054,-2.73047 0,-1.44 -0.48937,-2.55938 -1.60937,-3.35938 -0.96,-0.97 -2.24172,-1.29101 -4.01172,-1.29101 z m 41.5293,0 v 13.63086 h 9.46094 v -1.2793 h -8.02149 v -5.13086 h 6.90039 v -1.11914 h -6.90039 v -4.81055 h 7.86133 v -1.29101 z m 19.08008,0 v 13.63086 h 1.43945 V 249 h 3.69141 c 0.32,0 0.63914,-1.6e-4 1.11914,-0.16016 l 3.05078,4.49024 h 1.59961 l -3.36914,-4.65039 c 0.97,-0.32 1.77,-0.95961 2.25,-1.59961 0.64,-0.8 0.79883,-1.61047 0.79883,-2.73047 0,-1.44 -0.47946,-2.55938 -1.43946,-3.35938 -0.96,-0.97 -2.24976,-1.29101 -4.00976,-1.29101 z m -77.11914,1.12109 c 1.12,0 2.0789,0.33055 2.8789,0.81055 0.97,0.48 1.60985,1.11992 2.08985,1.91992 0.48,0.96 0.80078,1.91867 0.80078,2.88867 0,1.12 -0.32078,2.08086 -0.80078,2.88086 -0.48,0.96 -1.11985,1.60985 -2.08985,2.08985 -0.8,0.48 -1.7589,0.64062 -2.8789,0.64062 -0.96,0 -2.09063,-0.16062 -2.89063,-0.64062 -0.8,-0.48 -1.60008,-1.12985 -2.08008,-2.08985 -0.48,-0.8 -0.64062,-1.76086 -0.64062,-2.88086 0,-0.97 0.16062,-1.92867 0.64062,-2.88867 0.48,-0.8 1.28008,-1.43992 2.08008,-1.91992 0.8,-0.48 1.93063,-0.81055 2.89063,-0.81055 z m -109.99024,0.16992 h 3.5293 c 1.44,0 2.40102,0.16079 3.04101,0.80079 0.81001,0.64 1.12891,1.43859 1.12891,2.55859 0,1.12 -0.3189,1.93031 -1.12891,2.57031 -0.63999,0.48 -1.60101,0.80078 -3.04101,0.80078 h -3.5293 z m 127.94922,0 h 3.67969 c 1.29,0 2.41078,0.16079 3.05078,0.80079 0.64,0.64 1.11914,1.43859 1.11914,2.55859 0,1.12 -0.47914,1.93031 -1.11914,2.57031 -0.64,0.48 -1.76078,0.80078 -3.05078,0.80078 h -3.67969 z m 60.59961,0 h 3.69141 c 1.28,0 2.23882,0.16079 3.04883,0.80079 0.63999,0.64 0.96093,1.43859 0.96093,2.55859 0,1.12 -0.32094,1.93031 -0.96093,2.57031 -0.81001,0.48 -1.76883,0.80078 -3.04883,0.80078 h -3.69141 z m -131.14844,0.16016 3.36914,7.36914 h -6.58007 z m -41.05078,23.00977 v 7.13086 c 0,8.02 -0.32062,14.42828 -0.64062,19.23828 -0.48,4.81 -1.43907,8.33992 -3.03907,10.41992 -1.61,2.25 -4.17117,3.21094 -7.70117,3.21094 v 1.27929 h 33.19141 v -1.27929 c -3.53,0 -6.09117,-0.96094 -7.70117,-3.21094 -1.6,-2.08 -2.55907,-5.60992 -3.03907,-10.41992 -0.32,-4.81 -0.48046,-11.21828 -0.48046,-19.23828 v -7.13086 z m 53.79883,0 v 107.01953 h 1.12305 v -107.0195 z m 22.8418,0 v 7.13086 c 0,8.02 -0.32063,14.42828 -0.64063,19.23828 -0.48,4.81 -1.43906,8.33992 -3.03906,10.41992 -1.61,2.25 -4.17117,3.21094 -7.70117,3.21094 v 1.27929 h 33.18945 v -1.27929 c -3.53,0 -6.08922,-0.96094 -7.69922,-3.21094 -1.6,-2.08 -2.71906,-5.60992 -3.03906,-10.41992 -0.48,-4.81 -0.65039,-11.21828 -0.65039,-19.23828 v -7.13086 z m 37.20703,0 c 1.01943,1.34062 2.04208,2.77639 3.04297,4.40039 4.97,7.22 8.81937,13.30914 11.85937,18.11914 3.21,4.65 5.76922,8.5007 7.69922,11.2207 1.92,2.73 3.6807,4.6493 4.9707,5.7793 1.28,1.12 2.71977,1.75976 4.00977,1.75976 h 18.91992 v -1.27929 c -3.53,0 -6.89937,-1.1193 -10.10937,-3.5293 -3.2,-2.57 -6.41094,-5.61094 -9.46094,-9.46094 -3.04,-3.85 -6.08875,-8.17992 -8.96875,-12.66992 -2.89,-4.65 -5.78016,-8.98078 -8.66016,-13.30078 -0.25052,-0.36695 -0.51833,-0.68924 -0.77539,-1.03906 z"
       transform="translate(0,-6.9397335e-5)" /></g></svg>
